<?xml version="1.0" encoding="UTF-8" standalone="no"?>
<svg
   xmlns:dc="http://purl.org/dc/elements/1.1/"
   xmlns:cc="http://creativecommons.org/ns#"
   xmlns:rdf="http://www.w3.org/1999/02/22-rdf-syntax-ns#"
   xmlns:svg="http://www.w3.org/2000/svg"
   xmlns="http://www.w3.org/2000/svg"
   xmlns:sodipodi="http://sodipodi.sourceforge.net/DTD/sodipodi-0.dtd"
   xmlns:inkscape="http://www.inkscape.org/namespaces/inkscape"
   viewBox="0 0 606.34264 195.95598"
   height="195.95598"
   width="606.34265"
   xml:space="preserve"
   version="1.1"
   id="svg2"
   inkscape:version="0.48.5 r10040"
   sodipodi:docname="KYB company logo.svg"><sodipodi:namedview
     pagecolor="#ffffff"
     bordercolor="#666666"
     borderopacity="1"
     objecttolerance="10"
     gridtolerance="10"
     guidetolerance="10"
     inkscape:pageopacity="0"
     inkscape:pageshadow="2"
     inkscape:window-width="1280"
     inkscape:window-height="972"
     id="namedview37"
     showgrid="false"
     fit-margin-top="5"
     fit-margin-bottom="5"
     fit-margin-right="5"
     fit-margin-left="5"
     inkscape:zoom="1"
     inkscape:cx="152.80486"
     inkscape:cy="158.9373"
     inkscape:window-x="-8"
     inkscape:window-y="-8"
     inkscape:window-maximized="1"
     inkscape:current-layer="g10" /><metadata
     id="metadata8"><rdf:RDF><cc:Work
         rdf:about=""><dc:format>image/svg+xml</dc:format><dc:type
           rdf:resource="http://purl.org/dc/dcmitype/StillImage" /><dc:title></dc:title></cc:Work></rdf:RDF></metadata><defs
     id="defs6" /><g
     transform="matrix(3.5215455,0,0,-3.5215455,-73.210022,438.93894)"
     id="g10"><g
       transform="matrix(0.10995681,0,0,0.10995681,-2.2113069,-12.269174)"
       id="g12"><path
         id="path14"
         style="fill:#e51636;fill-opacity:1;fill-rule:nonzero;stroke:none"
         d="m 1175.66,1232.24 c -19.32,0 -38.63,-8.28 -55.2,-22.08 -97.96,-82.8 -97.96,-82.8 -97.96,-82.8 -15.18,-12.42 -34.512,-22.08 -57.969,-22.08 -31.738,0 -31.738,0 -31.738,0 81.417,67.62 81.417,67.62 81.417,67.62 -23.468,37.26 -23.468,37.26 -23.468,37.26 -8.273,15.18 -24.836,22.08 -42.773,22.08 -215.274,0 -215.274,0 -215.274,0 -19.328,0 -38.644,-8.28 -55.207,-22.08 -111.777,-93.84 -111.777,-93.84 -111.777,-93.84 -15.184,-12.41 -33.125,-22.08 -56.582,-22.08 -34.5,0 -34.5,0 -34.5,0 164.219,138 164.219,138 164.219,138 -168.36,0 -168.36,0 -168.36,0 -78.664,-276.002 -78.664,-276.002 -78.664,-276.002 132.481,0 132.481,0 132.481,0 35.879,122.822 35.879,122.822 35.879,122.822 62.101,-100.74 62.101,-100.74 62.101,-100.74 9.656,-16.562 26.219,-22.082 42.781,-22.082 121.446,0 121.446,0 121.446,0 -85.567,138.002 -85.567,138.002 -85.567,138.002 135.246,113.16 135.246,113.16 135.246,113.16 104.871,-168.36 104.871,-168.36 104.871,-168.36 -23.457,-82.802 -23.457,-82.802 -23.457,-82.802 136.625,0 136.625,0 136.625,0 23.46,82.802 23.46,82.802 23.46,82.802 213.91,179.4 213.91,179.4 213.91,179.4 -74.53,-262.202 -74.53,-262.202 -74.53,-262.202 34.51,0 34.51,0 34.51,0 22.07,0 41.38,9.66 56.56,22.082 110.41,92.46 110.41,92.46 110.41,92.46 19.32,16.56 37.27,23.46 56.58,23.46 19.32,0 34.49,0 34.49,0 -164.21,-138.002 -164.21,-138.002 -164.21,-138.002 131.09,0 131.09,0 131.09,0 63.48,0 120.08,24.848 132.48,70.382 12.42,41.4 -23.46,64.86 -62.09,67.62 -1.39,0 -1.39,0 0,0 38.63,4.14 82.79,31.74 93.85,69 12.4,40.02 -13.81,69 -57.97,69 -20.7,0 -40.02,-8.28 -57.97,-23.46 -97.97,-81.42 -97.97,-81.42 -97.97,-81.42 -12.42,-11.04 -31.74,-22.08 -56.58,-22.08 -33.13,0 -33.13,0 -33.13,0 150.43,126.96 150.43,126.96 150.43,126.96 -311.89,0 -311.89,0 -311.89,0 l 0,0"
         inkscape:connector-curvature="0" /><path
         id="path16"
         style="fill:#231f20;fill-opacity:1;fill-rule:nonzero;stroke:none"
         d="m 285.574,821.008 c -5.527,-23.469 -11.043,-46.926 -40.027,-46.926 -13.789,0 -23.457,4.141 -23.457,17.938 0,9.66 4.14,19.328 5.515,28.988 6.907,23.457 12.422,46.914 41.407,46.914 12.422,0 23.457,-2.766 23.457,-16.567 0,-9.656 -4.137,-22.078 -6.895,-30.347 l 0,0 z m -17.949,37.254 c -9.656,0 -13.797,-6.907 -17.937,-15.188 -4.141,-9.656 -12.422,-38.64 -12.422,-48.289 0,-6.902 2.761,-9.656 9.656,-9.656 9.668,0 13.808,5.508 17.953,13.797 4.137,9.66 12.418,40.008 12.418,49.676 0,5.519 -2.762,9.66 -9.668,9.66 l 0,0"
         inkscape:connector-curvature="0" /><path
         id="path18"
         style="fill:#231f20;fill-opacity:1;fill-rule:nonzero;stroke:none"
         d="m 339.395,787.883 c -1.387,-4.145 -2.766,-8.285 -2.766,-12.422 -13.797,0 -13.797,0 -13.797,0 2.754,8.277 2.754,8.277 2.754,8.277 -5.52,-5.515 -9.66,-8.277 -17.941,-8.277 -6.895,0 -12.422,2.762 -12.422,11.043 0,2.754 0,4.133 1.386,6.894 12.422,45.536 12.422,45.536 12.422,45.536 13.801,0 13.801,0 13.801,0 -12.422,-41.395 -12.422,-41.395 -12.422,-41.395 -1.379,-2.754 -1.379,-5.519 -1.379,-8.281 0,-4.129 1.379,-5.52 5.52,-5.52 8.281,0 12.422,8.282 15.176,15.188 11.043,40.008 11.043,40.008 11.043,40.008 13.8,0 13.8,0 13.8,0 -15.175,-51.051 -15.175,-51.051 -15.175,-51.051 l 0,0"
         inkscape:connector-curvature="0" /><path
         id="path20"
         style="fill:#231f20;fill-opacity:1;fill-rule:nonzero;stroke:none"
         d="m 398.73,827.898 c 0,1.379 -1.378,1.379 -1.378,1.379 -11.043,0 -16.559,-6.894 -19.325,-16.554 -9.66,-37.262 -9.66,-37.262 -9.66,-37.262 -13.797,0 -13.797,0 -13.797,0 15.176,52.437 15.176,52.437 15.176,52.437 1.387,4.145 2.762,6.907 2.762,11.036 12.422,0 12.422,0 12.422,0 -1.387,-8.27 -1.387,-8.27 -1.387,-8.27 4.141,6.895 9.668,9.656 17.949,9.656 l 1.379,0 c -4.141,-12.422 -4.141,-12.422 -4.141,-12.422 l 0,0"
         inkscape:connector-curvature="0" /><path
         id="path22"
         style="fill:#231f20;fill-opacity:1;fill-rule:nonzero;stroke:none"
         d="m 500.848,840.32 c -5.528,-22.078 -16.563,-24.843 -34.5,-24.843 0,0 -6.895,0 -9.66,0 -11.043,-40.016 -11.043,-40.016 -11.043,-40.016 -13.801,0 -13.801,0 -13.801,0 24.844,91.082 24.844,91.082 24.844,91.082 23.468,0 23.468,0 23.468,0 11.035,0 22.071,-1.387 22.071,-15.188 0,-4.128 0,-6.89 -1.379,-11.035 l 0,0 z m -24.832,16.567 c -8.282,0 -8.282,0 -8.282,0 -8.281,-30.364 -8.281,-30.364 -8.281,-30.364 6.895,0 6.895,0 6.895,0 12.422,0 17.937,2.754 20.703,15.176 1.387,1.375 1.387,4.141 1.387,6.903 0,6.898 -6.915,8.285 -12.422,8.285 l 0,0"
         inkscape:connector-curvature="0" /><path
         id="path24"
         style="fill:#231f20;fill-opacity:1;fill-rule:nonzero;stroke:none"
         d="m 542.254,827.898 c 0,1.379 -1.387,1.379 -2.762,1.379 -9.656,0 -15.187,-6.894 -17.941,-16.554 -11.043,-37.262 -11.043,-37.262 -11.043,-37.262 -12.422,0 -12.422,0 -12.422,0 15.184,52.437 15.184,52.437 15.184,52.437 1.378,4.145 1.378,6.907 2.753,11.036 12.422,0 12.422,0 12.422,0 -2.754,-8.27 -2.754,-8.27 -2.754,-8.27 5.52,6.895 11.036,9.656 19.317,9.656 0,0 0,0 1.387,0 -4.141,-12.422 -4.141,-12.422 -4.141,-12.422 l 0,0"
         inkscape:connector-curvature="0" /><path
         id="path26"
         style="fill:#231f20;fill-opacity:1;fill-rule:nonzero;stroke:none"
         d="m 591.934,805.82 c -31.75,0 -31.75,0 -31.75,0 -1.375,-4.14 -4.141,-11.035 -4.141,-15.183 0,-5.508 1.387,-6.899 6.906,-6.899 6.895,0 11.035,6.899 12.422,12.422 12.422,0 12.422,0 12.422,0 -4.141,-13.797 -12.422,-22.078 -27.609,-22.078 -9.657,0 -16.563,4.141 -16.563,15.176 0,5.527 1.387,11.047 2.774,16.562 5.507,17.942 12.414,34.5 33.117,34.5 9.656,0 16.562,-2.761 16.562,-12.422 0,-6.89 -2.765,-15.175 -4.14,-22.078 l 0,0 z m -15.188,26.223 c -9.656,0 -12.422,-11.035 -15.184,-17.941 19.325,0 19.325,0 19.325,0 1.379,4.14 2.765,6.906 2.765,11.035 0,4.14 -2.765,6.906 -6.906,6.906 l 0,0"
         inkscape:connector-curvature="0" /><path
         id="path28"
         style="fill:#231f20;fill-opacity:1;fill-rule:nonzero;stroke:none"
         d="m 654.031,818.242 c -12.422,0 -12.422,0 -12.422,0 0,2.766 1.379,5.52 1.379,6.895 0,4.14 -2.765,6.906 -6.902,6.906 -11.039,0 -15.18,-15.188 -16.555,-23.457 -1.386,-5.531 -4.14,-12.426 -4.14,-17.949 0,-4.133 1.386,-6.899 6.894,-6.899 8.281,0 11.043,6.899 12.422,13.801 12.422,0 12.422,0 12.422,0 -4.141,-15.176 -9.66,-23.457 -26.223,-23.457 -9.656,0 -19.316,2.754 -19.316,13.801 0,6.902 2.765,12.422 4.133,17.937 4.14,17.942 9.668,34.5 31.746,34.5 8.281,0 17.941,-1.386 17.941,-11.043 0,-4.14 -1.379,-6.894 -1.379,-11.035 l 0,0"
         inkscape:connector-curvature="0" /><path
         id="path30"
         style="fill:#231f20;fill-opacity:1;fill-rule:nonzero;stroke:none"
         d="m 669.211,775.461 -13.801,0 19.324,63.473 12.414,0 -17.937,-63.473 0,0 z m 22.078,77.273 -13.801,0 4.141,12.422 13.801,0 -4.141,-12.422 0,0"
         inkscape:connector-curvature="0" /><path
         id="path32"
         style="fill:#231f20;fill-opacity:1;fill-rule:nonzero;stroke:none"
         d="m 669.211,775.461 -13.801,0 19.324,63.473 12.414,0 -17.937,-63.473 0,0 z m 22.078,77.273 -13.801,0 4.141,12.422 13.801,0 -4.141,-12.422 0,0"
         inkscape:connector-curvature="0" /><path
         id="path34"
         style="fill:#231f20;fill-opacity:1;fill-rule:nonzero;stroke:none"
         d="m 738.203,821.008 c -12.414,0 -12.414,0 -12.414,0 1.379,2.754 1.379,4.129 1.379,6.89 0,2.766 -2.754,4.145 -5.52,4.145 -5.515,0 -9.656,-4.145 -9.656,-9.66 0,-8.281 20.703,-12.422 20.703,-24.844 0,-15.176 -12.422,-22.078 -26.23,-22.078 -8.281,0 -17.942,2.762 -17.942,11.043 0,4.133 0,6.894 1.379,9.656 12.422,0 12.422,0 12.422,0 0,-2.762 -1.379,-5.523 -1.379,-6.902 0,-4.129 2.766,-5.52 6.907,-5.52 5.515,0 11.035,5.52 11.035,11.047 0,9.649 -20.703,13.801 -20.703,26.223 0,13.797 11.043,19.312 24.843,19.312 8.282,0 16.563,-1.386 16.563,-11.043 0,-2.754 0,-5.515 -1.387,-8.269 l 0,0"
         inkscape:connector-curvature="0" /><path
         id="path36"
         style="fill:#231f20;fill-opacity:1;fill-rule:nonzero;stroke:none"
         d="m 754.766,775.461 -13.801,0 19.316,63.473 12.422,0 -17.937,-63.473 0,0 z m 22.078,77.273 -13.797,0 4.141,12.422 13.796,0 -4.14,-12.422 0,0"
         inkscape:connector-curvature="0" /><path
         id="path38"
         style="fill:#231f20;fill-opacity:1;fill-rule:nonzero;stroke:none"
         d="m 754.766,775.461 -13.801,0 19.316,63.473 12.422,0 -17.937,-63.473 0,0 z m 22.078,77.273 -13.797,0 4.141,12.422 13.796,0 -4.14,-12.422 0,0"
         inkscape:connector-curvature="0" /><path
         id="path40"
         style="fill:#231f20;fill-opacity:1;fill-rule:nonzero;stroke:none"
         d="m 826.523,808.586 c -5.519,-19.328 -8.281,-34.504 -31.73,-34.504 -8.281,0 -17.949,4.141 -17.949,15.176 0,5.527 1.386,12.422 4.14,17.937 5.528,19.328 9.668,33.125 31.739,33.125 8.281,0 17.941,-2.761 17.941,-13.797 0,-5.515 -1.379,-11.046 -4.141,-17.937 l 0,0 z m -15.168,23.457 c -11.054,0 -13.808,-9.66 -16.562,-19.32 -1.387,-5.528 -5.527,-16.563 -5.527,-22.086 0,-4.133 2.765,-6.899 6.906,-6.899 9.656,0 12.414,8.282 15.183,16.567 4.133,12.418 4.133,12.418 4.133,12.418 0,4.132 1.375,8.285 1.375,12.414 0,4.14 -1.375,6.906 -5.508,6.906 l 0,0"
         inkscape:connector-curvature="0" /><path
         id="path42"
         style="fill:#231f20;fill-opacity:1;fill-rule:nonzero;stroke:none"
         d="m 892.762,821.008 c -13.797,-45.547 -13.797,-45.547 -13.797,-45.547 -12.422,0 -12.422,0 -12.422,0 11.043,42.781 11.043,42.781 11.043,42.781 1.379,2.766 2.754,5.52 2.754,8.281 0,4.141 -2.754,5.52 -6.883,5.52 -8.281,0 -12.422,-9.66 -15.187,-16.566 -11.043,-40.016 -11.043,-40.016 -11.043,-40.016 -12.422,0 -12.422,0 -12.422,0 13.808,52.437 13.808,52.437 13.808,52.437 1.375,2.766 2.754,6.907 4.141,11.036 12.422,0 12.422,0 12.422,0 -1.387,-6.891 -1.387,-6.891 -1.387,-6.891 4.141,5.516 9.668,8.277 16.551,8.277 8.281,0 13.808,-2.761 13.808,-9.656 0,-4.141 -1.386,-6.902 -1.386,-9.656 l 0,0"
         inkscape:connector-curvature="0" /><path
         id="path44"
         style="fill:#231f20;fill-opacity:1;fill-rule:nonzero;stroke:none"
         d="m 901.043,763.047 -9.656,0 12.422,26.211 13.796,0 -16.562,-26.211 0,0"
         inkscape:connector-curvature="0" /><path
         id="path46"
         style="fill:#231f20;fill-opacity:1;fill-rule:nonzero;stroke:none"
         d="m 1003.16,811.348 -9.656,-35.887 -15.176,0 11.035,35.887 -8.277,55.195 13.812,0 4.122,-42.781 30.37,42.781 15.18,0 -41.41,-55.195 0,0"
         inkscape:connector-curvature="0" /><path
         id="path48"
         style="fill:#231f20;fill-opacity:1;fill-rule:nonzero;stroke:none"
         d="m 1083.22,808.586 c -5.53,-19.328 -9.67,-34.504 -31.76,-34.504 -9.65,0 -19.32,4.141 -19.32,15.176 0,5.527 2.78,12.422 4.15,17.937 5.52,19.328 9.66,33.125 31.73,33.125 9.67,0 17.95,-2.761 17.95,-13.797 0,-5.515 -1.38,-11.046 -2.75,-17.937 l 0,0 z m -16.56,23.457 c -11.04,0 -13.81,-9.66 -16.57,-19.32 -1.38,-5.528 -4.14,-16.563 -4.14,-22.086 0,-4.133 1.37,-6.899 6.9,-6.899 9.67,0 11.03,8.282 13.81,16.567 4.14,12.418 4.14,12.418 4.14,12.418 1.36,4.132 2.75,8.285 2.75,12.414 0,4.14 -2.75,6.906 -6.89,6.906 l 0,0"
         inkscape:connector-curvature="0" /><path
         id="path50"
         style="fill:#231f20;fill-opacity:1;fill-rule:nonzero;stroke:none"
         d="m 1138.41,787.883 c -1.38,-4.145 -2.77,-8.285 -4.14,-12.422 -12.42,0 -12.42,0 -12.42,0 1.37,8.277 1.37,8.277 1.37,8.277 -4.12,-5.515 -9.65,-8.277 -16.54,-8.277 -6.92,0 -13.81,2.762 -13.81,11.043 0,2.754 1.38,4.133 1.38,6.894 13.79,45.536 13.79,45.536 13.79,45.536 12.42,0 12.42,0 12.42,0 -11.03,-41.395 -11.03,-41.395 -11.03,-41.395 -1.39,-2.754 -2.75,-5.519 -2.75,-8.281 0,-4.129 2.75,-5.52 6.89,-5.52 8.28,0 12.42,8.282 13.81,15.188 12.4,40.008 12.4,40.008 12.4,40.008 12.42,0 12.42,0 12.42,0 -13.79,-51.051 -13.79,-51.051 -13.79,-51.051 l 0,0"
         inkscape:connector-curvature="0" /><path
         id="path52"
         style="fill:#231f20;fill-opacity:1;fill-rule:nonzero;stroke:none"
         d="m 1197.75,827.898 c -1.39,1.379 -1.39,1.379 -2.75,1.379 -9.67,0 -15.18,-6.894 -17.95,-16.554 -11.04,-37.262 -11.04,-37.262 -11.04,-37.262 -12.42,0 -12.42,0 -12.42,0 15.18,52.437 15.18,52.437 15.18,52.437 0,4.145 1.38,6.907 2.75,11.036 12.42,0 12.42,0 12.42,0 -2.75,-8.27 -2.75,-8.27 -2.75,-8.27 5.52,6.895 11.03,9.656 19.31,9.656 l 0,0 c -2.75,-12.422 -2.75,-12.422 -2.75,-12.422 l 0,0"
         inkscape:connector-curvature="0" /><path
         id="path54"
         style="fill:#231f20;fill-opacity:1;fill-rule:nonzero;stroke:none"
         d="m 1276.4,775.461 0,22.078 -28.98,0 -11.04,-22.078 -15.17,0 52.44,91.082 16.56,0 0,-91.082 -13.81,0 0,0 z m -22.07,33.125 22.07,0 1.39,46.914 -23.46,-46.914 0,0"
         inkscape:connector-curvature="0" /><path
         id="path56"
         style="fill:#231f20;fill-opacity:1;fill-rule:nonzero;stroke:none"
         d="m 1276.4,775.461 0,22.078 -28.98,0 -11.04,-22.078 -15.17,0 52.44,91.082 16.56,0 0,-91.082 -13.81,0 0,0 z m -22.07,33.125 22.07,0 1.39,46.914 -23.46,-46.914 0,0"
         inkscape:connector-curvature="0" /><path
         id="path58"
         style="fill:#231f20;fill-opacity:1;fill-rule:nonzero;stroke:none"
         d="m 1349.55,787.883 c -1.37,-4.145 -2.76,-8.285 -4.14,-12.422 -12.43,0 -12.43,0 -12.43,0 2.78,8.277 2.78,8.277 2.78,8.277 -5.53,-5.515 -9.67,-8.277 -16.56,-8.277 -8.29,0 -13.81,4.137 -13.81,13.797 0,5.527 1.38,12.422 4.14,17.937 4.14,17.942 8.28,33.125 26.23,33.125 5.51,0 11.03,-1.386 13.79,-6.902 9.66,33.125 9.66,33.125 9.66,33.125 12.43,0 12.43,0 12.43,0 -22.09,-78.66 -22.09,-78.66 -22.09,-78.66 l 0,0 z m -11.04,44.16 c -9.67,0 -13.81,-16.566 -16.56,-24.848 -1.39,-5.515 -2.75,-11.035 -2.75,-15.175 0,-4.137 1.36,-8.282 5.5,-8.282 11.06,0 15.2,15.188 16.57,23.457 1.38,5.528 4.14,11.047 4.14,16.567 0,5.515 -1.39,8.281 -6.9,8.281 l 0,0"
         inkscape:connector-curvature="0" /><path
         id="path60"
         style="fill:#231f20;fill-opacity:1;fill-rule:nonzero;stroke:none"
         d="m 1390.95,775.461 -15.17,0 1.36,63.473 12.43,0 -2.76,-51.051 26.21,51.051 12.43,0 -34.5,-63.473 0,0"
         inkscape:connector-curvature="0" /><path
         id="path62"
         style="fill:#231f20;fill-opacity:1;fill-rule:nonzero;stroke:none"
         d="m 1473.75,819.617 c -4.14,-13.797 -8.29,-28.98 -11.04,-44.156 -12.42,0 -12.42,0 -12.42,0 1.39,8.277 1.39,8.277 1.39,8.277 -4.14,-5.515 -9.67,-8.277 -17.95,-8.277 -6.9,0 -12.43,4.137 -12.43,12.422 0,20.703 16.57,27.594 35.88,27.594 2.78,0 2.78,0 2.78,0 1.36,2.765 2.75,8.285 2.75,11.046 0,4.141 -1.39,5.52 -5.53,5.52 -6.89,0 -9.64,-4.145 -11.03,-9.66 -13.81,0 -13.81,0 -13.81,0 4.16,13.797 12.42,17.937 26.23,17.937 8.28,0 16.56,-1.386 16.56,-11.043 0,-4.14 0,-6.894 -1.38,-9.66 l 0,0 z m -17.93,-12.422 c -11.06,0 -20.71,-5.515 -20.71,-17.937 0,-2.754 1.39,-5.52 5.51,-5.52 11.06,0 15.2,15.188 17.95,23.457 -2.75,0 -2.75,0 -2.75,0 l 0,0"
         inkscape:connector-curvature="0" /><path
         id="path64"
         style="fill:#231f20;fill-opacity:1;fill-rule:nonzero;stroke:none"
         d="m 1538.61,821.008 c -13.81,-45.547 -13.81,-45.547 -13.81,-45.547 -12.42,0 -12.42,0 -12.42,0 11.05,42.781 11.05,42.781 11.05,42.781 1.37,2.766 2.76,5.52 2.76,8.281 0,4.141 -2.76,5.52 -6.9,5.52 -8.28,0 -12.42,-9.66 -15.19,-16.566 -11.04,-40.016 -11.04,-40.016 -11.04,-40.016 -12.42,0 -12.42,0 -12.42,0 13.81,52.437 13.81,52.437 13.81,52.437 1.39,2.766 2.75,6.907 2.75,11.036 13.81,0 13.81,0 13.81,0 -1.39,-6.891 -1.39,-6.891 -1.39,-6.891 4.15,5.516 9.67,8.277 16.57,8.277 8.28,0 13.79,-2.761 13.79,-9.656 0,-4.141 -1.37,-6.902 -1.37,-9.656 l 0,0"
         inkscape:connector-curvature="0" /><path
         id="path66"
         style="fill:#231f20;fill-opacity:1;fill-rule:nonzero;stroke:none"
         d="m 1585.52,830.664 c -11.03,0 -11.03,0 -11.03,0 -9.67,-37.266 -9.67,-37.266 -9.67,-37.266 -1.37,-1.378 -1.37,-2.761 -1.37,-4.14 0,-4.129 2.76,-4.129 5.53,-4.129 1.37,0 2.75,0 4.12,0 -2.75,-9.668 -2.75,-9.668 -2.75,-9.668 -2.76,0 -5.53,0 -8.28,0 -5.51,0 -12.43,0 -12.43,8.277 0,2.766 0,5.52 1.39,8.282 11.04,38.644 11.04,38.644 11.04,38.644 -9.67,0 -9.67,0 -9.67,0 2.77,8.27 2.77,8.27 2.77,8.27 9.65,0 9.65,0 9.65,0 2.77,11.046 2.77,11.046 2.77,11.046 15.18,5.52 15.18,5.52 15.18,5.52 -5.53,-16.566 -5.53,-16.566 -5.53,-16.566 11.04,0 11.04,0 11.04,0 -2.76,-8.27 -2.76,-8.27 -2.76,-8.27 l 0,0"
         inkscape:connector-curvature="0" /><path
         id="path68"
         style="fill:#231f20;fill-opacity:1;fill-rule:nonzero;stroke:none"
         d="m 1637.96,819.617 c -4.14,-13.797 -9.64,-28.98 -12.42,-44.156 -12.42,0 -12.42,0 -12.42,0 2.77,8.277 2.77,8.277 2.77,8.277 -5.52,-5.515 -9.66,-8.277 -17.94,-8.277 -6.9,0 -12.43,4.137 -12.43,12.422 0,20.703 16.57,27.594 34.52,27.594 4.14,0 4.14,0 4.14,0 1.36,2.765 2.75,8.285 2.75,11.046 0,4.141 -2.75,5.52 -5.53,5.52 -6.89,0 -11.03,-4.145 -12.42,-9.66 -12.4,0 -12.4,0 -12.4,0 2.75,13.797 12.4,17.937 24.82,17.937 8.28,0 17.95,-1.386 17.95,-11.043 0,-4.14 0,-6.894 -1.39,-9.66 l 0,0 z m -19.31,-12.422 c -11.04,0 -19.32,-5.515 -19.32,-17.937 0,-2.754 1.37,-5.52 5.53,-5.52 11.03,0 13.79,15.188 16.54,23.457 -2.75,0 -2.75,0 -2.75,0 l 0,0"
         inkscape:connector-curvature="0" /><path
         id="path70"
         style="fill:#231f20;fill-opacity:1;fill-rule:nonzero;stroke:none"
         d="m 1686.27,772.703 c -4.15,-15.183 -12.43,-20.699 -27.6,-20.699 -8.28,0 -17.93,1.375 -17.93,11.043 0,2.754 0,4.133 0,6.894 13.79,0 13.79,0 13.79,0 0,-1.386 0,-2.761 0,-5.515 0,-2.766 1.38,-5.52 5.52,-5.52 12.41,0 13.79,16.555 16.57,24.832 -4.16,-4.14 -8.28,-6.902 -15.2,-6.902 -9.65,0 -13.79,4.141 -13.79,13.801 0,5.523 1.37,11.043 2.76,16.558 4.14,16.567 9.66,33.125 27.59,33.125 5.53,0 11.04,-1.386 12.43,-8.277 2.77,6.891 2.77,6.891 2.77,6.891 12.4,0 12.4,0 12.4,0 -6.89,-22.079 -12.4,-44.149 -19.31,-66.231 l 0,0 z m -5.51,59.34 c -11.06,0 -15.2,-16.566 -17.95,-24.848 -1.39,-5.515 -2.76,-9.656 -2.76,-13.797 0,-5.515 1.37,-8.269 6.9,-8.269 9.67,0 13.81,15.176 16.56,23.457 1.37,4.137 2.76,9.656 2.76,15.176 0,4.136 -1.39,8.281 -5.51,8.281 l 0,0"
         inkscape:connector-curvature="0" /><path
         id="path72"
         style="fill:#231f20;fill-opacity:1;fill-rule:nonzero;stroke:none"
         d="m 1758.02,805.82 c -31.73,0 -31.73,0 -31.73,0 -1.39,-4.14 -4.15,-11.035 -4.15,-15.183 0,-5.508 2.76,-6.899 6.92,-6.899 8.26,0 11.03,6.899 13.79,12.422 12.42,0 12.42,0 12.42,0 -5.53,-13.797 -12.42,-22.078 -28.98,-22.078 -9.65,0 -16.57,4.141 -16.57,15.176 0,5.527 1.39,11.047 4.14,16.562 4.14,17.942 11.04,34.5 33.13,34.5 9.67,0 15.17,-2.761 15.17,-12.422 0,-6.89 -2.75,-15.175 -4.14,-22.078 l 0,0 z m -13.79,26.223 c -9.66,0 -13.8,-11.035 -15.17,-17.941 17.93,0 17.93,0 17.93,0 1.39,4.14 2.75,6.906 2.75,11.035 0,4.14 -1.36,6.906 -5.51,6.906 l 0,0"
         inkscape:connector-curvature="0" /></g></g></svg>